<svg width="95" height="89" viewBox="0 0 95 89" fill="none" xmlns="http://www.w3.org/2000/svg">
<path d="M36.5872 31.3002C35.0552 31.3002 33.537 31.1953 32.1172 30.7773C27.004 29.2665 23.2887 24.7448 22.12 19.6337C20.9512 14.4993 22.2889 8.87708 25.8871 4.98821C29.2158 1.39227 33.1598 0.647135 37.7941 0.647135C37.8419 0.647135 37.9237 0.650502 38.0286 0.654825C38.0848 0.657141 38.1477 0.659731 38.2155 0.662224C38.4091 0.669335 38.6413 0.675554 38.8692 0.671896C39.0967 0.668244 39.3215 0.654733 39.4997 0.621934C39.5887 0.605551 39.6677 0.584063 39.7302 0.55568C39.7919 0.527671 39.8428 0.490508 39.8673 0.439546L39.8675 0.439138C39.8717 0.430155 39.8729 0.419737 39.8701 0.409449C39.8675 0.400014 39.8623 0.393265 39.8581 0.388984C39.8502 0.380959 39.8401 0.375899 39.8324 0.372602C39.816 0.365546 39.7929 0.3594 39.7662 0.353768C39.7119 0.342318 39.6331 0.331121 39.539 0.320306C39.3502 0.298627 39.0949 0.278003 38.8384 0.260149C38.326 0.224484 37.8045 0.1996 37.7941 0.1996C37.4113 0.1996 37.0279 0.197735 36.6444 0.19587C32.5204 0.175807 28.3843 0.155687 24.7327 2.45469L24.7326 2.4547C19.0421 6.04198 16.4964 13.1856 17.9739 19.6444C19.3406 25.6427 24.0952 30.4628 30.2421 31.3918C32.8668 31.7883 35.6072 31.7296 38.3009 31.6719C39.2533 31.6515 40.1997 31.6312 41.1332 31.6312C41.181 31.6312 41.2628 31.6346 41.3677 31.6389C41.4239 31.6412 41.4868 31.6438 41.5546 31.6463C41.7481 31.6534 41.9804 31.6596 42.2082 31.6559C42.4358 31.6523 42.6606 31.6388 42.8387 31.606C42.9277 31.5896 43.0068 31.5681 43.0693 31.5397C43.1268 31.5136 43.175 31.4795 43.2011 31.4336L43.2066 31.4348C43.2102 31.4271 43.2116 31.4183 43.2101 31.4094V31.4074L43.2097 31.4073C43.2095 31.4066 43.2094 31.4059 43.2092 31.4051C43.2066 31.3957 43.2014 31.389 43.1972 31.3847C43.1893 31.3767 43.1792 31.3716 43.1715 31.3683C43.1551 31.3612 43.132 31.3551 43.1053 31.3495C43.051 31.338 42.9722 31.3268 42.878 31.316C42.6892 31.2943 42.434 31.2737 42.1774 31.2558C41.665 31.2202 41.1435 31.1953 41.1332 31.1953C40.4063 31.1953 39.6609 31.221 38.9083 31.2469L38.8832 31.2478C38.1218 31.274 37.3531 31.3002 36.5872 31.3002Z" fill="#191919" stroke="#191919" stroke-width="0.074584"/>
<path d="M61.088 31.6424C60.2106 31.5494 59.3078 31.5493 58.4029 31.5726C58.0985 31.5805 57.7936 31.591 57.4895 31.6014C56.8902 31.622 56.2934 31.6426 55.7075 31.6426C55.6972 31.6426 55.1757 31.6177 54.6632 31.582C54.4067 31.5642 54.1515 31.5435 53.9627 31.5219C53.8685 31.5111 53.7897 31.4999 53.7354 31.4884C53.7087 31.4828 53.6856 31.4766 53.6692 31.4696C53.6615 31.4663 53.6514 31.4612 53.6435 31.4532C53.6393 31.4489 53.6341 31.4422 53.6315 31.4327C53.6287 31.4224 53.6299 31.412 53.6341 31.403L53.6343 31.4026C53.6588 31.3517 53.7098 31.3145 53.7714 31.2865C53.8339 31.2581 53.913 31.2366 54.002 31.2202C54.1801 31.1874 54.4049 31.1739 54.6325 31.1703C54.8603 31.1666 55.0926 31.1728 55.2861 31.18C55.3539 31.1824 55.4168 31.185 55.473 31.1873C55.5779 31.1917 55.6597 31.195 55.7075 31.195C56.4139 31.195 57.13 31.183 57.8512 31.1709C59.483 31.1434 61.141 31.1155 62.7727 31.2257C65.1267 31.3847 67.4314 31.8311 69.5356 32.9825C69.5358 32.9826 69.536 32.9827 69.5362 32.9828L69.5466 32.988L69.5479 32.9886C75.4582 36.2228 77.9815 42.8226 77.3393 49.0096C76.697 55.1971 72.8878 60.9808 66.1237 62.579L66.1237 62.579C63.5105 63.1936 60.6904 63.1372 57.9606 63.0827C57.1904 63.0673 56.4275 63.052 55.6783 63.052H45.1017C45.0914 63.052 44.5699 63.0271 44.0575 62.9915C43.8009 62.9736 43.5457 62.953 43.3569 62.9313C43.2627 62.9205 43.184 62.9093 43.1296 62.8979C43.1029 62.8922 43.0798 62.8861 43.0634 62.879C43.0557 62.8757 43.0457 62.8707 43.0378 62.8626C43.0335 62.8584 43.0283 62.8516 43.0258 62.8422C43.0229 62.8319 43.0241 62.8215 43.0283 62.8125L43.0285 62.8121H43.0285C43.0531 62.7611 43.104 62.7239 43.1656 62.6959C43.2281 62.6676 43.3072 62.6461 43.3962 62.6297C43.5743 62.5969 43.7991 62.5834 44.0267 62.5797C44.2546 62.5761 44.4868 62.5823 44.6803 62.5894C44.7482 62.5919 44.811 62.5945 44.8672 62.5968C44.9722 62.6011 45.0539 62.6045 45.1017 62.6045H46.4222V0.518688C46.3925 0.518709 46.3596 0.51875 46.3239 0.518794C46.0078 0.519189 45.473 0.519857 44.9894 0.509195C44.7085 0.503 44.444 0.492966 44.2495 0.476751C44.1525 0.468663 44.0716 0.458936 44.0144 0.447069C43.9861 0.441202 43.9614 0.434387 43.943 0.426005C43.9339 0.421857 43.9242 0.416362 43.9162 0.408745C43.908 0.400951 43.8989 0.388151 43.8989 0.370661C43.8989 0.344579 43.9141 0.324925 43.9296 0.311641C43.9453 0.298135 43.9663 0.286752 43.9897 0.276809C44.0367 0.256786 44.1025 0.23892 44.1801 0.222792C44.336 0.19041 44.5478 0.163489 44.7733 0.141964C45.2245 0.0988898 45.7355 0.0769658 45.9758 0.0769658C46.3547 0.0769658 47.4959 0.0798784 48.5426 0.116323C49.0658 0.13454 49.5662 0.161161 49.9361 0.200091C50.1208 0.21953 50.2745 0.24218 50.3825 0.268778C50.4363 0.282002 50.481 0.296732 50.5131 0.313676C50.5291 0.322137 50.544 0.332147 50.5552 0.344392C50.5667 0.356943 50.5759 0.373651 50.5759 0.393971V62.6045H56.7389C57.2184 62.6045 57.7062 62.6205 58.1962 62.6367C59.1827 62.6691 60.1785 62.7019 61.1348 62.6047M61.088 31.6424C61.088 31.6424 61.088 31.6424 61.088 31.6424L61.092 31.6053L61.088 31.6424ZM61.088 31.6424C64.5663 32.014 67.8153 34.1982 69.9435 36.8963M69.9435 36.8963C74.4609 42.6345 74.5424 51.2054 70.1703 57.0485C68.0593 59.8689 64.723 62.2331 61.1348 62.6047M69.9435 36.8963L69.9728 36.8732L69.9436 36.8963C69.9436 36.8963 69.9435 36.8963 69.9435 36.8963ZM61.1348 62.6047C61.1348 62.6047 61.1348 62.6047 61.1347 62.6047L61.1386 62.6418L61.1348 62.6047Z" fill="#191919" stroke="#191919" stroke-width="0.074584"/>
<path d="M90.7725 82.743L92.4331 78.7662C92.672 78.1835 92.7915 77.8601 92.7915 77.796C92.7915 77.5047 92.4681 77.3532 91.8213 77.3415V76.9395H94.3385V77.3415C93.9481 77.359 93.6626 77.4639 93.4819 77.6562C93.3013 77.8426 93.077 78.2592 92.8089 78.906L89.6187 86.6062C89.3157 87.3404 89.0477 87.8386 88.8146 88.1008C88.5815 88.3689 88.3252 88.5029 88.0455 88.5029C87.6667 88.5029 87.4774 88.331 87.4774 87.9872C87.4774 87.591 87.7804 87.2559 88.3863 86.9821C88.7418 86.8247 88.9778 86.6907 89.0943 86.58C89.2167 86.4693 89.3361 86.2683 89.4527 85.9769L90.1344 84.2726L87.4424 78.504C87.2035 77.997 87.0054 77.6766 86.8481 77.5425C86.6907 77.4085 86.4227 77.3415 86.0439 77.3415V76.9395H89.3303V77.3415C88.7534 77.359 88.465 77.4784 88.465 77.6999C88.465 77.7873 88.5786 78.0728 88.8059 78.5564L90.7725 82.743Z" fill="#191919"/>
<path d="M85.816 77.3417H83.6571V81.6681C83.6571 82.3324 83.6863 82.7811 83.7446 83.0141C83.8028 83.2414 83.9252 83.4249 84.1116 83.5648C84.3039 83.7046 84.5079 83.7745 84.7235 83.7745C85.143 83.7745 85.5072 83.5356 85.816 83.0578L86.0957 83.2239C85.9151 83.6085 85.647 83.8998 85.2916 84.0979C84.942 84.2902 84.5865 84.3864 84.2253 84.3864C83.8057 84.3864 83.4357 84.264 83.1152 84.0193C82.8006 83.7687 82.6025 83.4774 82.5209 83.1452C82.4452 82.8131 82.4073 82.2304 82.4073 81.3972V77.3417H81.3672V76.9396C81.845 76.928 82.2733 76.7269 82.652 76.3365C83.0308 75.9461 83.2726 75.3984 83.3775 74.6934H83.6571V76.9396H85.816V77.3417Z" fill="#191919"/>
<path d="M79.3485 76.9395V81.633C79.3485 82.4138 79.3601 82.9033 79.3834 83.1014C79.4067 83.2995 79.4912 83.4481 79.6369 83.5471C79.7884 83.6462 80.0564 83.6957 80.441 83.6957V84.0978C79.5553 84.1094 78.9085 84.2026 78.5006 84.3775H78.3958C78.2093 84.057 78.1102 83.5034 78.0986 82.7168C77.7431 83.2703 77.3353 83.687 76.8749 83.9667C76.4204 84.2463 75.9164 84.3862 75.3629 84.3862C74.8851 84.3862 74.4626 84.2784 74.0955 84.0628C73.7284 83.8414 73.475 83.5733 73.3351 83.2587C73.2011 82.944 73.1341 82.4692 73.1341 81.834V79.3955C73.1341 78.5681 73.1195 78.064 73.0904 77.8834C73.0613 77.6969 72.968 77.56 72.8107 77.4726C72.6592 77.3852 72.3766 77.3415 71.9629 77.3415V76.9395H74.3927V81.9039C74.3927 82.3934 74.4218 82.7488 74.4801 82.9703C74.5384 83.1917 74.687 83.3869 74.9259 83.5559C75.1648 83.719 75.4415 83.8006 75.7562 83.8006C76.2049 83.8006 76.6331 83.6549 77.041 83.3636C77.4489 83.0664 77.7257 82.7547 77.8713 82.4284C78.0228 82.0962 78.0986 81.6243 78.0986 81.0124V79.3955C78.0986 78.6147 78.0898 78.1398 78.0724 77.9708C78.0549 77.8018 77.9791 77.6562 77.8451 77.5338C77.7169 77.4056 77.446 77.3415 77.0323 77.3415H76.8487V76.9395H79.3485Z" fill="#191919"/>
<path d="M71.0614 82.7871H71.3848C71.3324 83.7835 70.8429 84.2817 69.9165 84.2817C69.5202 84.2817 69.2056 84.1768 68.9725 83.967C68.7453 83.7572 68.5967 83.4455 68.5267 83.0318C67.9441 83.4455 67.4109 83.7572 66.9273 83.967C66.4495 84.1768 66.0212 84.2817 65.6424 84.2817C65.1588 84.2817 64.7422 84.1418 64.3926 83.8621C64.043 83.5824 63.8682 83.2124 63.8682 82.7521C63.8682 82.1519 64.1595 81.6275 64.7422 81.1788C65.3307 80.7302 66.1406 80.2932 67.172 79.8678L68.5267 79.3172V78.9675C68.5267 78.4723 68.4947 78.1139 68.4306 77.8925C68.3665 77.6711 68.2004 77.473 67.9324 77.2981C67.6644 77.1233 67.3118 77.0359 66.8748 77.0359C66.0008 77.0359 65.5143 77.3273 65.4152 77.91C65.322 78.5043 65.0772 78.8015 64.681 78.8015C64.3256 78.8015 64.1479 78.6325 64.1479 78.2945C64.1479 77.9624 64.3838 77.607 64.8558 77.2282C65.3278 76.8437 66.062 76.6514 67.0584 76.6514C67.7984 76.6514 68.3723 76.7679 68.7802 77.001C69.1881 77.2341 69.4561 77.4992 69.5843 77.7963C69.7183 78.0935 69.7854 78.548 69.7854 79.1598V82.0529C69.7854 82.7288 69.8203 83.1629 69.8902 83.3552C69.9602 83.5475 70.1117 83.6436 70.3447 83.6436C70.7293 83.6436 70.9682 83.3581 71.0614 82.7871ZM68.5267 79.728L67.5741 80.1125C66.0707 80.7244 65.3191 81.4935 65.3191 82.42C65.3191 82.7871 65.4152 83.0842 65.6075 83.3115C65.7998 83.5329 66.0503 83.6436 66.3592 83.6436C66.633 83.6436 66.9506 83.5533 67.3118 83.3727C67.6731 83.192 68.0781 82.9211 68.5267 82.5598V79.728Z" fill="#191919"/>
<path d="M62.4961 79.3609H57.5054C57.4821 79.7046 57.4704 79.961 57.4704 80.13C57.4704 81.3886 57.6656 82.3355 58.056 82.9706C58.4522 83.5999 59.0408 83.9146 59.8216 83.9146C60.8821 83.9146 61.6337 83.4397 62.0766 82.4899H62.4961C62.3096 83.0842 61.9396 83.5504 61.3861 83.8883C60.8325 84.2205 60.2294 84.3865 59.5768 84.3865C58.9708 84.3865 58.3969 84.235 57.855 83.932C57.3189 83.6232 56.879 83.1891 56.5352 82.6297C56.1914 82.0704 56.0195 81.3915 56.0195 80.5932C56.0195 79.4628 56.3517 78.5247 57.0159 77.7789C57.6802 77.0272 58.5105 76.6514 59.5069 76.6514C60.445 76.6514 61.1705 76.9369 61.6832 77.5079C62.196 78.079 62.467 78.6966 62.4961 79.3609ZM60.9665 79.0113C60.984 78.8772 60.9928 78.7578 60.9928 78.6529C60.9928 78.1401 60.8413 77.7439 60.5383 77.4642C60.2411 77.1787 59.874 77.0359 59.437 77.0359C58.3765 77.0359 57.7443 77.6944 57.5403 79.0113H60.9665Z" fill="#191919"/>
<path d="M50.5662 77.7168C51.9122 77.8159 52.9115 78.1509 53.5641 78.722C54.2167 79.293 54.543 80.0068 54.543 80.8634C54.543 81.6092 54.3216 82.2531 53.8788 82.795C53.4359 83.331 52.8678 83.6836 52.1744 83.8525C51.4869 84.0157 50.5633 84.0973 49.4037 84.0973H44.7539V83.6952H45.2084C45.7153 83.6952 46.065 83.6311 46.2572 83.5029C46.4554 83.3747 46.5806 83.1766 46.6331 82.9086C46.6855 82.6347 46.7117 82.0025 46.7117 81.0119V75.2433C46.7117 74.2819 46.6826 73.6613 46.6243 73.3817C46.5719 73.102 46.4554 72.9097 46.2747 72.8048C46.0999 72.6999 45.7124 72.6475 45.1123 72.6475H44.885V72.2454L46.8341 72.193L49.0541 72.123C52.2939 72.123 53.9137 73.0553 53.9137 74.9199C53.9137 75.6891 53.6341 76.3067 53.0747 76.7729C52.5211 77.239 51.685 77.5537 50.5662 77.7168ZM48.4248 77.5508C48.5705 77.5566 48.6929 77.5595 48.7919 77.5595C50.0505 77.5595 50.91 77.3614 51.3703 76.9652C51.8306 76.5689 52.0608 75.928 52.0608 75.0423C52.0608 74.4247 51.9705 73.9469 51.7899 73.6089C51.6092 73.2709 51.3383 73.0116 50.977 72.831C50.6157 72.6446 49.9981 72.5513 49.1241 72.5513C48.8968 72.5513 48.6637 72.5601 48.4248 72.5775V77.5508ZM48.4248 77.9791V80.6186C48.4248 81.7432 48.4452 82.457 48.486 82.76C48.5268 83.063 48.6346 83.2932 48.8094 83.4505C48.99 83.6078 49.3426 83.6865 49.867 83.6865C50.7993 83.6865 51.4985 83.4476 51.9647 82.9698C52.4308 82.492 52.6639 81.7753 52.6639 80.8197C52.6639 79.8407 52.3988 79.1211 51.8685 78.6608C51.3441 78.1946 50.4176 77.9616 49.0891 77.9616C48.8793 77.9616 48.6579 77.9674 48.4248 77.9791Z" fill="#191919"/>
<path d="M39.3525 82.7871H39.6758C39.6234 83.7835 39.1339 84.2817 38.2075 84.2817C37.8112 84.2817 37.4966 84.1768 37.2635 83.967C37.0363 83.7572 36.8877 83.4455 36.8178 83.0318C36.2351 83.4455 35.7019 83.7572 35.2183 83.967C34.7405 84.1768 34.3122 84.2817 33.9335 84.2817C33.4498 84.2817 33.0332 84.1418 32.6836 83.8621C32.334 83.5824 32.1592 83.2124 32.1592 82.7521C32.1592 82.1519 32.4505 81.6275 33.0332 81.1788C33.6217 80.7302 34.4317 80.2932 35.463 79.8678L36.8178 79.3172V78.9675C36.8178 78.4723 36.7857 78.1139 36.7216 77.8925C36.6575 77.6711 36.4915 77.473 36.2234 77.2981C35.9554 77.1233 35.6029 77.0359 35.1658 77.0359C34.2918 77.0359 33.8053 77.3273 33.7062 77.91C33.613 78.5043 33.3683 78.8015 32.972 78.8015C32.6166 78.8015 32.4389 78.6325 32.4389 78.2945C32.4389 77.9624 32.6749 77.607 33.1468 77.2282C33.6188 76.8437 34.353 76.6514 35.3494 76.6514C36.0894 76.6514 36.6634 76.7679 37.0712 77.001C37.4791 77.2341 37.7471 77.4992 37.8753 77.7963C38.0094 78.0935 38.0764 78.548 38.0764 79.1598V82.0529C38.0764 82.7288 38.1113 83.1629 38.1813 83.3552C38.2512 83.5475 38.4027 83.6436 38.6357 83.6436C39.0203 83.6436 39.2592 83.3581 39.3525 82.7871ZM36.8178 79.728L35.8651 80.1125C34.3617 80.7244 33.6101 81.4935 33.6101 82.42C33.6101 82.7871 33.7062 83.0842 33.8985 83.3115C34.0908 83.5329 34.3413 83.6436 34.6502 83.6436C34.924 83.6436 35.2416 83.5533 35.6029 83.3727C35.9641 83.192 36.3691 82.9211 36.8178 82.5598V79.728Z" fill="#191919"/>
<path d="M29.9125 72.0801V81.642C29.9125 82.4053 29.9212 82.886 29.9387 83.0841C29.962 83.2822 30.0465 83.4337 30.1922 83.5386C30.3378 83.6435 30.5971 83.6959 30.97 83.6959H31.1798V84.098H27.3516V83.6959H27.5963C27.9459 83.6959 28.1935 83.6493 28.3392 83.5561C28.4907 83.457 28.581 83.3201 28.6102 83.1453C28.6393 82.9705 28.6539 82.4694 28.6539 81.642V74.5623C28.6539 73.8107 28.5869 73.3387 28.4528 73.1464C28.3188 72.9483 27.9925 72.8492 27.4739 72.8492V72.4472C27.8294 72.4472 28.246 72.4064 28.7238 72.3248C29.2074 72.2432 29.5396 72.1617 29.7202 72.0801H29.9125Z" fill="#191919"/>
<path d="M23.9796 78.4781C24.1777 77.9595 24.4982 77.5254 24.941 77.1758C25.3897 76.8262 25.8267 76.6514 26.2521 76.6514C26.6367 76.6514 26.9397 76.7708 27.1611 77.0097C27.3825 77.2486 27.4932 77.4934 27.4932 77.7439C27.4932 77.9129 27.4349 78.0586 27.3184 78.1809C27.2077 78.3033 27.0708 78.3645 26.9076 78.3645C26.6163 78.3645 26.3948 78.1489 26.2433 77.7177C26.1385 77.4263 25.9811 77.2807 25.7714 77.2807C25.5208 77.2807 25.2207 77.4526 24.8711 77.7963C24.5215 78.1343 24.2972 78.4868 24.1981 78.8539C24.0991 79.221 24.0495 79.725 24.0495 80.366V81.6421C24.0495 82.4054 24.0583 82.8861 24.0758 83.0842C24.0991 83.2823 24.1836 83.4338 24.3292 83.5387C24.4749 83.6436 24.7342 83.6961 25.1071 83.6961H25.3518V84.0981H21.5498V83.6961H21.7334C22.083 83.6961 22.3306 83.6494 22.4763 83.5562C22.6278 83.4572 22.7181 83.3202 22.7472 83.1454C22.7764 82.9706 22.7909 82.4695 22.7909 81.6421V79.6231C22.7909 78.8539 22.7793 78.3732 22.756 78.1809C22.7385 77.9828 22.6569 77.8313 22.5112 77.7264C22.3656 77.6157 22.1063 77.5604 21.7334 77.5604H21.5498V77.167C22.0975 77.1029 22.8142 76.9311 23.6999 76.6514C23.8689 77.1117 23.9621 77.7206 23.9796 78.4781Z" fill="#191919"/>
<path d="M20.4901 82.7871H20.8135C20.7611 83.7835 20.2716 84.2817 19.3452 84.2817C18.9489 84.2817 18.6343 84.1768 18.4012 83.967C18.174 83.7572 18.0254 83.4455 17.9555 83.0318C17.3728 83.4455 16.8396 83.7572 16.356 83.967C15.8782 84.1768 15.4499 84.2817 15.0712 84.2817C14.5875 84.2817 14.1709 84.1418 13.8213 83.8621C13.4717 83.5824 13.2969 83.2124 13.2969 82.7521C13.2969 82.1519 13.5882 81.6275 14.1709 81.1788C14.7594 80.7302 15.5694 80.2932 16.6007 79.8678L17.9555 79.3172V78.9675C17.9555 78.4723 17.9234 78.1139 17.8593 77.8925C17.7952 77.6711 17.6292 77.473 17.3611 77.2981C17.0931 77.1233 16.7406 77.0359 16.3035 77.0359C15.4295 77.0359 14.943 77.3273 14.8439 77.91C14.7507 78.5043 14.506 78.8015 14.1097 78.8015C13.7543 78.8015 13.5766 78.6325 13.5766 78.2945C13.5766 77.9624 13.8126 77.607 14.2845 77.2282C14.7565 76.8437 15.4907 76.6514 16.4871 76.6514C17.2271 76.6514 17.801 76.7679 18.2089 77.001C18.6168 77.2341 18.8848 77.4992 19.013 77.7963C19.1471 78.0935 19.2141 78.548 19.2141 79.1598V82.0529C19.2141 82.7288 19.249 83.1629 19.3189 83.3552C19.3889 83.5475 19.5404 83.6436 19.7734 83.6436C20.158 83.6436 20.3969 83.3581 20.4901 82.7871ZM17.9555 79.728L17.0028 80.1125C15.4994 80.7244 14.7478 81.4935 14.7478 82.42C14.7478 82.7871 14.8439 83.0842 15.0362 83.3115C15.2285 83.5329 15.479 83.6436 15.7879 83.6436C16.0617 83.6436 16.3793 83.5533 16.7406 83.3727C17.1018 83.192 17.5068 82.9211 17.9555 82.5598V79.728Z" fill="#191919"/>
<path d="M11.0514 79.6489H11.4272V83.8005H11.0514C10.9465 83.3286 10.7571 82.9119 10.4833 82.5507C9.44027 83.7277 8.10883 84.3162 6.48896 84.3162C4.77586 84.3162 3.3745 83.7743 2.28488 82.6905C1.20108 81.6067 0.65918 80.1733 0.65918 78.3903C0.65918 77.2191 0.909735 76.1178 1.41085 75.0865C1.91196 74.0493 2.61118 73.2801 3.50852 72.779C4.40586 72.2779 5.3906 72.0273 6.46274 72.0273C7.34843 72.0273 8.14962 72.2109 8.86633 72.578C9.58886 72.9392 10.1278 73.3413 10.4833 73.7841C10.7338 73.2889 10.8853 72.7761 10.9378 72.2459H11.3224L11.4272 76.7384H11.0514C10.7892 75.1418 10.2531 74.0318 9.44319 73.4083C8.63908 72.7848 7.73009 72.4731 6.71621 72.4731C5.47509 72.4731 4.48743 72.9771 3.75325 73.9852C3.02489 74.9932 2.66071 76.4354 2.66071 78.3116C2.66071 80.0888 3.05985 81.4523 3.85813 82.4021C4.65641 83.346 5.64989 83.818 6.83858 83.818C7.47371 83.818 8.1234 83.6636 8.78766 83.3548C9.45193 83.046 9.97635 82.5245 10.3609 81.7903C10.7513 81.0503 10.9815 80.3365 11.0514 79.6489Z" fill="#191919"/>
</svg>
 