<svg width="268" height="24" viewBox="0 0 268 24" fill="none" xmlns="http://www.w3.org/2000/svg">
<path d="M0.425875 23.6194V22.8194L1.06588 22.7554C1.87654 22.6701 2.50588 22.5634 2.95388 22.4354C3.40188 22.2861 3.71121 21.9874 3.88188 21.5394C4.05254 21.0701 4.13788 20.3128 4.13788 19.2674V5.85944C4.13788 4.9421 3.94588 4.3021 3.56188 3.93944C3.19921 3.57677 2.49521 3.35277 1.44988 3.26744L0.361875 3.17144V2.21144C1.19388 2.10477 1.87654 1.97677 2.40988 1.82744C2.94321 1.65677 3.43388 1.47544 3.88188 1.28344C4.32988 1.0701 4.82054 0.85677 5.35388 0.643436H6.56988V19.2674C6.56988 20.3128 6.64454 21.0701 6.79388 21.5394C6.96454 21.9874 7.26321 22.2861 7.68988 22.4354C8.13788 22.5634 8.76721 22.6701 9.57788 22.7554L10.2179 22.8194V23.6194L5.32188 23.5234L0.425875 23.6194ZM12.9044 17.1874V15.9074H21.4484V17.1874H12.9044ZM31.2219 23.8754C29.8565 23.8754 28.6085 23.5448 27.4779 22.8834C26.3685 22.2221 25.4832 21.3368 24.8219 20.2274C24.1819 19.0968 23.8619 17.8488 23.8619 16.4834C23.8619 15.0754 24.1819 13.8061 24.8219 12.6754C25.4832 11.5448 26.3685 10.6488 27.4779 9.98744C28.6085 9.3261 29.8565 8.99544 31.2219 8.99544C32.6085 8.99544 33.8565 9.3261 34.9659 9.98744C36.0752 10.6488 36.9499 11.5448 37.5899 12.6754C38.2512 13.8061 38.5819 15.0754 38.5819 16.4834C38.5819 17.8488 38.2512 19.0968 37.5899 20.2274C36.9499 21.3368 36.0752 22.2221 34.9659 22.8834C33.8565 23.5448 32.6085 23.8754 31.2219 23.8754ZM31.2219 23.0754C32.3739 23.0754 33.3019 22.7874 34.0059 22.2114C34.7099 21.6141 35.2219 20.8248 35.5419 19.8434C35.8619 18.8408 36.0219 17.7208 36.0219 16.4834C36.0219 15.2034 35.8619 14.0621 35.5419 13.0594C35.2219 12.0568 34.7099 11.2674 34.0059 10.6914C33.3019 10.0941 32.3739 9.79544 31.2219 9.79544C30.0699 9.79544 29.1419 10.0941 28.4379 10.6914C27.7339 11.2674 27.2219 12.0568 26.9019 13.0594C26.5819 14.0621 26.4219 15.2034 26.4219 16.4834C26.4219 17.7208 26.5819 18.8408 26.9019 19.8434C27.2219 20.8248 27.7339 21.6141 28.4379 22.2114C29.1419 22.7874 30.0699 23.0754 31.2219 23.0754ZM40.9116 23.6194V22.8834L41.4236 22.8194C42.0423 22.7341 42.5116 22.6381 42.8316 22.5314C43.173 22.4034 43.4076 22.1368 43.5356 21.7314C43.6636 21.3048 43.7276 20.6114 43.7276 19.6514V12.8994C43.7276 11.7901 43.493 11.0861 43.0236 10.7874C42.5756 10.4674 41.9463 10.3074 41.1356 10.3074H40.9116V9.57144C41.7863 9.57144 42.629 9.5501 43.4396 9.50744C44.2503 9.44344 45.093 9.33677 45.9676 9.18744V11.7794C46.4583 11.0541 47.1516 10.4141 48.0476 9.85944C48.9436 9.28344 49.989 8.99544 51.1836 8.99544C52.6343 8.99544 53.7756 9.36877 54.6076 10.1154C55.461 10.8408 55.8876 11.8861 55.8876 13.2514V19.6514C55.8876 20.6114 55.9516 21.3048 56.0796 21.7314C56.2076 22.1368 56.4316 22.4034 56.7516 22.5314C57.093 22.6381 57.573 22.7341 58.1916 22.8194L58.7036 22.8834V23.6194L54.7676 23.5234L50.8316 23.6194V22.8834L51.3436 22.8194C51.9623 22.7341 52.4316 22.6381 52.7516 22.5314C53.093 22.4034 53.3276 22.1368 53.4556 21.7314C53.5836 21.3048 53.6476 20.6114 53.6476 19.6514V13.2514C53.6476 12.1848 53.3703 11.3741 52.8156 10.8194C52.261 10.2434 51.4823 9.95544 50.4796 9.95544C49.7116 9.95544 49.0183 10.1368 48.3996 10.4994C47.781 10.8408 47.269 11.2674 46.8636 11.7794C46.4583 12.2914 46.1596 12.7821 45.9676 13.2514V19.6514C45.9676 20.6114 46.0316 21.3048 46.1596 21.7314C46.2876 22.1368 46.5116 22.4034 46.8316 22.5314C47.173 22.6381 47.653 22.7341 48.2716 22.8194L48.7836 22.8834V23.6194L44.8476 23.5234L40.9116 23.6194ZM60.9669 17.1874V15.9074H69.5109V17.1874H60.9669ZM71.9884 23.6194V22.8194L72.6284 22.7554C73.439 22.6701 74.0684 22.5634 74.5164 22.4354C74.9644 22.2861 75.2737 21.9874 75.4444 21.5394C75.615 21.0701 75.7004 20.3128 75.7004 19.2674V5.85944C75.7004 4.9421 75.5084 4.3021 75.1244 3.93944C74.7617 3.57677 74.0577 3.35277 73.0124 3.26744L71.9244 3.17144V2.21144C72.7564 2.10477 73.439 1.97677 73.9724 1.82744C74.5057 1.65677 74.9964 1.47544 75.4444 1.28344C75.8924 1.0701 76.383 0.85677 76.9164 0.643436H78.1324V19.2674C78.1324 20.3128 78.207 21.0701 78.3564 21.5394C78.527 21.9874 78.8257 22.2861 79.2524 22.4354C79.7004 22.5634 80.3297 22.6701 81.1404 22.7554L81.7804 22.8194V23.6194L76.8844 23.5234L71.9884 23.6194ZM92.1044 23.6194V22.8194L92.7444 22.7554C93.491 22.6701 94.0564 22.5634 94.4404 22.4354C94.8457 22.2861 95.123 21.9874 95.2724 21.5394C95.4217 21.0701 95.4964 20.3128 95.4964 19.2674V5.05944C95.4964 3.99277 95.4217 3.23544 95.2724 2.78744C95.123 2.33944 94.8457 2.05144 94.4404 1.92344C94.0564 1.7741 93.491 1.65677 92.7444 1.57144L92.1044 1.50744V0.707436L96.8404 0.803436H98.6324L106.248 19.2674L114.664 0.803436H116.584L121.064 0.707436V1.50744L120.424 1.57144C119.699 1.65677 119.134 1.7741 118.728 1.92344C118.323 2.05144 118.046 2.33944 117.896 2.78744C117.747 3.23544 117.672 3.99277 117.672 5.05944V19.2674C117.672 20.3128 117.747 21.0701 117.896 21.5394C118.046 22.0088 118.323 22.3074 118.728 22.4354C119.134 22.5634 119.699 22.6701 120.424 22.7554L121.064 22.8194V23.6194L116.328 23.5234L111.56 23.6194V22.8194L112.2 22.7554C112.947 22.6701 113.512 22.5634 113.896 22.4354C114.302 22.3074 114.579 22.0088 114.728 21.5394C114.878 21.0701 114.952 20.3128 114.952 19.2674V2.81944L105.48 23.5234H104.872L96.6164 3.13944V20.1634C96.6164 20.8461 96.7017 21.3581 96.8724 21.6994C97.043 22.0408 97.3204 22.2861 97.7044 22.4354C98.1097 22.5634 98.6644 22.6701 99.3684 22.7554L100.008 22.8194V23.6194L95.9444 23.5234L92.1044 23.6194ZM127.511 23.8754C126.487 23.8754 125.634 23.6194 124.951 23.1074C124.29 22.5741 123.959 21.8381 123.959 20.8994C123.959 19.9608 124.375 19.1288 125.207 18.4034C126.039 17.6568 127.01 16.9848 128.119 16.3874C128.951 15.9181 129.783 15.5128 130.615 15.1714C131.447 14.8301 132.162 14.5421 132.759 14.3074V13.2834C132.759 12.1101 132.535 11.2354 132.087 10.6594C131.661 10.0834 130.839 9.79544 129.623 9.79544C129.047 9.79544 128.482 9.8701 127.927 10.0194C127.373 10.1688 127.095 10.4461 127.095 10.8514C127.095 10.9368 127.106 11.0328 127.127 11.1394C127.17 11.2461 127.202 11.3528 127.223 11.4594C127.33 11.7368 127.383 12.0248 127.383 12.3234C127.383 12.7288 127.234 13.0488 126.935 13.2834C126.658 13.4968 126.317 13.6034 125.911 13.6034C125.527 13.6034 125.207 13.4648 124.951 13.1874C124.695 12.8888 124.567 12.5368 124.567 12.1314C124.567 11.3634 124.855 10.7554 125.431 10.3074C126.029 9.8381 126.754 9.50744 127.607 9.31544C128.461 9.1021 129.282 8.99544 130.071 8.99544C131.778 8.99544 133.026 9.3901 133.815 10.1794C134.605 10.9688 134.999 12.2594 134.999 14.0514V19.8114C134.999 20.7501 135.063 21.4754 135.191 21.9874C135.341 22.4994 135.661 22.7554 136.151 22.7554C136.471 22.7554 136.749 22.6381 136.983 22.4034C137.218 22.1688 137.378 21.9128 137.463 21.6354L138.039 21.8594C137.869 22.4781 137.559 22.9688 137.111 23.3314C136.685 23.6941 136.087 23.8754 135.319 23.8754C134.381 23.8754 133.73 23.6088 133.367 23.0754C133.026 22.5208 132.834 21.7954 132.791 20.8994C132.194 21.8594 131.437 22.5954 130.519 23.1074C129.602 23.6194 128.599 23.8754 127.511 23.8754ZM126.455 20.7394C126.455 21.3368 126.626 21.8168 126.967 22.1794C127.33 22.5208 127.853 22.6914 128.535 22.6914C129.154 22.6914 129.741 22.5421 130.295 22.2434C130.871 21.9448 131.373 21.5714 131.799 21.1234C132.226 20.6541 132.546 20.1528 132.759 19.6194V14.9474C132.055 15.2461 131.33 15.5981 130.583 16.0034C129.858 16.3874 129.175 16.8248 128.535 17.3154C127.917 17.8061 127.415 18.3394 127.031 18.9154C126.647 19.4701 126.455 20.0781 126.455 20.7394ZM144.831 23.8754C144.02 23.8754 143.327 23.7794 142.751 23.5874C142.196 23.4168 141.759 23.2568 141.439 23.1074C141.098 22.9368 140.884 22.8514 140.799 22.8514C140.714 22.8514 140.639 22.8941 140.575 22.9794C140.532 23.0434 140.479 23.2248 140.415 23.5234H139.679L139.807 21.4114L139.903 18.6914H140.607L140.639 19.2354C140.682 19.8328 140.874 20.4301 141.215 21.0274C141.578 21.6248 142.068 22.1261 142.687 22.5314C143.306 22.9368 144.02 23.1394 144.831 23.1394C145.706 23.1394 146.41 22.9154 146.943 22.4674C147.476 22.0194 147.743 21.4008 147.743 20.6114C147.743 19.9288 147.466 19.3528 146.911 18.8834C146.378 18.4141 145.631 17.9981 144.671 17.6354L143.519 17.1874C142.41 16.7608 141.567 16.2274 140.991 15.5874C140.436 14.9474 140.159 14.1261 140.159 13.1234C140.159 12.2701 140.351 11.5448 140.735 10.9474C141.14 10.3288 141.663 9.84877 142.303 9.50744C142.964 9.1661 143.668 8.99544 144.415 8.99544C144.948 8.99544 145.396 9.05944 145.759 9.18744C146.143 9.31544 146.463 9.44344 146.719 9.57144C146.932 9.6781 147.114 9.73144 147.263 9.73144C147.476 9.73144 147.647 9.50744 147.775 9.05944L148.479 9.09144L148.351 11.1714V13.4114H147.615C147.466 12.4088 147.124 11.5448 146.591 10.8194C146.058 10.0728 145.29 9.69944 144.287 9.69944C143.583 9.69944 142.986 9.92344 142.495 10.3714C142.026 10.8194 141.791 11.3848 141.791 12.0674C141.791 12.7288 142.036 13.2834 142.527 13.7314C143.039 14.1581 143.732 14.5421 144.607 14.8834L145.855 15.3634C147.156 15.8541 148.052 16.4514 148.543 17.1554C149.055 17.8381 149.311 18.6594 149.311 19.6194C149.311 20.7501 148.927 21.7421 148.159 22.5954C147.391 23.4488 146.282 23.8754 144.831 23.8754ZM157.457 23.8754C156.412 23.8754 155.559 23.5661 154.897 22.9474C154.257 22.3074 153.937 21.2728 153.937 19.8434V10.3714H151.569V9.57144L152.433 9.50744C153.308 9.44344 153.969 9.09144 154.417 8.45144C154.887 7.7901 155.196 6.87277 155.345 5.69944H156.177V9.57144H160.273V10.3714H156.177V19.9714C156.177 21.8488 156.839 22.7874 158.161 22.7874C158.716 22.7874 159.164 22.6061 159.505 22.2434C159.847 21.8594 160.156 21.3901 160.433 20.8354L161.137 21.1874C161.009 21.5074 160.849 21.8061 160.657 22.0834C160.487 22.3394 160.316 22.5634 160.145 22.7554C159.783 23.1608 159.367 23.4488 158.897 23.6194C158.449 23.7901 157.969 23.8754 157.457 23.8754ZM169.589 23.8754C168.181 23.8754 166.954 23.5768 165.909 22.9794C164.863 22.3608 164.042 21.5181 163.445 20.4514C162.869 19.3634 162.581 18.1261 162.581 16.7394C162.581 15.2461 162.901 13.9234 163.541 12.7714C164.181 11.5981 165.034 10.6808 166.101 10.0194C167.189 9.33677 168.383 8.99544 169.685 8.99544C171.327 8.99544 172.607 9.5181 173.525 10.5634C174.463 11.6088 174.933 12.9848 174.933 14.6914C174.933 14.9474 174.922 15.1608 174.901 15.3314C174.879 15.5021 174.858 15.6194 174.837 15.6834H165.173C165.151 15.9821 165.141 16.2808 165.141 16.5794C165.141 17.7101 165.322 18.7661 165.685 19.7474C166.047 20.7074 166.591 21.4754 167.317 22.0514C168.063 22.6274 168.97 22.9154 170.037 22.9154C171.039 22.9154 171.925 22.6381 172.693 22.0834C173.482 21.5074 174.09 20.6648 174.517 19.5554L175.285 19.8434C174.389 22.5314 172.49 23.8754 169.589 23.8754ZM169.685 9.79544C168.362 9.79544 167.327 10.2648 166.581 11.2034C165.855 12.1421 165.407 13.3901 165.237 14.9474H169.301C170.261 14.9474 170.986 14.8408 171.477 14.6274C171.989 14.3928 172.33 14.1154 172.501 13.7954C172.693 13.4541 172.789 13.1234 172.789 12.8034C172.789 11.8648 172.469 11.1288 171.829 10.5954C171.189 10.0621 170.474 9.79544 169.685 9.79544ZM177.287 23.6194V22.8834L177.799 22.8194C178.417 22.7341 178.887 22.6381 179.207 22.5314C179.548 22.4034 179.783 22.1368 179.911 21.7314C180.039 21.3048 180.103 20.6114 180.103 19.6514V12.9954C180.103 12.1634 179.985 11.5554 179.751 11.1714C179.537 10.7874 179.217 10.5528 178.791 10.4674C178.364 10.3608 177.863 10.3074 177.287 10.3074V9.57144C178.161 9.57144 179.004 9.53944 179.815 9.47544C180.625 9.41144 181.468 9.31544 182.343 9.18744L181.991 12.8674H182.119C182.588 11.4381 183.164 10.4354 183.847 9.85944C184.529 9.28344 185.265 8.99544 186.055 8.99544C186.951 8.99544 187.548 9.21944 187.847 9.66744C188.145 10.0941 188.295 10.5101 188.295 10.9154C188.295 11.3848 188.156 11.7688 187.879 12.0674C187.601 12.3661 187.228 12.5154 186.759 12.5154C186.311 12.5154 185.969 12.4088 185.735 12.1954C185.5 11.9821 185.383 11.7368 185.383 11.4594C185.383 11.2461 185.404 11.0434 185.447 10.8514C185.511 10.6594 185.543 10.5101 185.543 10.4034C185.543 10.1901 185.393 10.0834 185.095 10.0834C184.796 10.0834 184.476 10.2221 184.135 10.4994C183.815 10.7768 183.537 11.1608 183.303 11.6514C183.111 12.0568 182.929 12.5048 182.759 12.9954C182.588 13.4861 182.449 14.0194 182.343 14.5954V19.6514C182.343 20.6114 182.407 21.3048 182.535 21.7314C182.663 22.1368 182.887 22.4034 183.207 22.5314C183.548 22.6381 184.028 22.7341 184.647 22.8194L185.159 22.8834V23.6194L181.223 23.5234L177.287 23.6194ZM209.839 23.8754C207.663 23.8754 205.786 23.3741 204.207 22.3714C202.65 21.3688 201.445 19.9928 200.591 18.2434C199.759 16.4728 199.343 14.4461 199.343 12.1634C199.343 10.4568 199.621 8.88877 200.175 7.45944C200.73 6.0301 201.498 4.7821 202.479 3.71544C203.461 2.64877 204.591 1.82744 205.871 1.25144C207.173 0.654103 208.559 0.355436 210.031 0.355436C211.333 0.355436 212.399 0.50477 213.231 0.803436C214.085 1.08077 214.725 1.3261 215.151 1.53944C215.429 1.66744 215.685 1.78477 215.919 1.89144C216.154 1.97677 216.314 2.01944 216.399 2.01944C216.634 2.01944 216.826 1.9341 216.975 1.76344C217.125 1.57144 217.221 1.25144 217.263 0.803436H218.063L217.999 4.54744L218.063 8.29144H217.263C216.943 6.07277 216.175 4.35544 214.959 3.13944C213.743 1.92344 212.133 1.31544 210.127 1.31544C208.719 1.31544 207.535 1.60344 206.575 2.17944C205.615 2.7341 204.847 3.51277 204.271 4.51544C203.695 5.49677 203.269 6.64877 202.991 7.97144C202.735 9.27277 202.607 10.6701 202.607 12.1634C202.607 14.4034 202.842 16.3234 203.311 17.9234C203.802 19.5234 204.591 20.7608 205.679 21.6354C206.789 22.4888 208.271 22.9154 210.127 22.9154C211.514 22.9154 212.719 22.5954 213.743 21.9554C214.767 21.3154 215.589 20.4621 216.207 19.3954C216.847 18.3288 217.231 17.1554 217.359 15.8754H218.127L218.063 19.7794L218.159 23.5234H217.391L217.295 23.1714C217.21 22.8941 217.103 22.6381 216.975 22.4034C216.869 22.1474 216.677 22.0194 216.399 22.0194C216.25 22.0194 216.069 22.0621 215.855 22.1474C215.663 22.2328 215.439 22.3394 215.183 22.4674C214.629 22.7448 213.903 23.0541 213.007 23.3954C212.111 23.7154 211.055 23.8754 209.839 23.8754ZM220.871 23.6194V22.8834L221.383 22.8194C222.001 22.7341 222.471 22.6381 222.791 22.5314C223.132 22.4034 223.367 22.1368 223.495 21.7314C223.623 21.3048 223.687 20.6114 223.687 19.6514V4.03544C223.687 2.9261 223.452 2.2221 222.983 1.92344C222.535 1.60344 221.905 1.44344 221.095 1.44344H220.871V0.707436C221.745 0.707436 222.588 0.686103 223.399 0.643436C224.209 0.579436 225.052 0.472769 225.927 0.323437V19.6514C225.927 20.6114 225.991 21.3048 226.119 21.7314C226.247 22.1368 226.471 22.4034 226.791 22.5314C227.132 22.6381 227.612 22.7341 228.231 22.8194L228.743 22.8834V23.6194L224.807 23.5234L220.871 23.6194ZM234.386 23.8754C233.362 23.8754 232.509 23.6194 231.826 23.1074C231.165 22.5741 230.834 21.8381 230.834 20.8994C230.834 19.9608 231.25 19.1288 232.082 18.4034C232.914 17.6568 233.885 16.9848 234.994 16.3874C235.826 15.9181 236.658 15.5128 237.49 15.1714C238.322 14.8301 239.037 14.5421 239.634 14.3074V13.2834C239.634 12.1101 239.41 11.2354 238.962 10.6594C238.536 10.0834 237.714 9.79544 236.498 9.79544C235.922 9.79544 235.357 9.8701 234.802 10.0194C234.248 10.1688 233.97 10.4461 233.97 10.8514C233.97 10.9368 233.981 11.0328 234.002 11.1394C234.045 11.2461 234.077 11.3528 234.098 11.4594C234.205 11.7368 234.258 12.0248 234.258 12.3234C234.258 12.7288 234.109 13.0488 233.81 13.2834C233.533 13.4968 233.192 13.6034 232.786 13.6034C232.402 13.6034 232.082 13.4648 231.826 13.1874C231.57 12.8888 231.442 12.5368 231.442 12.1314C231.442 11.3634 231.73 10.7554 232.306 10.3074C232.904 9.8381 233.629 9.50744 234.482 9.31544C235.336 9.1021 236.157 8.99544 236.946 8.99544C238.653 8.99544 239.901 9.3901 240.69 10.1794C241.48 10.9688 241.874 12.2594 241.874 14.0514V19.8114C241.874 20.7501 241.938 21.4754 242.066 21.9874C242.216 22.4994 242.536 22.7554 243.026 22.7554C243.346 22.7554 243.624 22.6381 243.858 22.4034C244.093 22.1688 244.253 21.9128 244.338 21.6354L244.914 21.8594C244.744 22.4781 244.434 22.9688 243.986 23.3314C243.56 23.6941 242.962 23.8754 242.194 23.8754C241.256 23.8754 240.605 23.6088 240.242 23.0754C239.901 22.5208 239.709 21.7954 239.666 20.8994C239.069 21.8594 238.312 22.5954 237.394 23.1074C236.477 23.6194 235.474 23.8754 234.386 23.8754ZM233.33 20.7394C233.33 21.3368 233.501 21.8168 233.842 22.1794C234.205 22.5208 234.728 22.6914 235.41 22.6914C236.029 22.6914 236.616 22.5421 237.17 22.2434C237.746 21.9448 238.248 21.5714 238.674 21.1234C239.101 20.6541 239.421 20.1528 239.634 19.6194V14.9474C238.93 15.2461 238.205 15.5981 237.458 16.0034C236.733 16.3874 236.05 16.8248 235.41 17.3154C234.792 17.8061 234.29 18.3394 233.906 18.9154C233.522 19.4701 233.33 20.0781 233.33 20.7394ZM251.706 23.8754C250.895 23.8754 250.202 23.7794 249.626 23.5874C249.071 23.4168 248.634 23.2568 248.314 23.1074C247.973 22.9368 247.759 22.8514 247.674 22.8514C247.589 22.8514 247.514 22.8941 247.45 22.9794C247.407 23.0434 247.354 23.2248 247.29 23.5234H246.554L246.682 21.4114L246.778 18.6914H247.482L247.514 19.2354C247.557 19.8328 247.749 20.4301 248.09 21.0274C248.453 21.6248 248.943 22.1261 249.562 22.5314C250.181 22.9368 250.895 23.1394 251.706 23.1394C252.581 23.1394 253.285 22.9154 253.818 22.4674C254.351 22.0194 254.618 21.4008 254.618 20.6114C254.618 19.9288 254.341 19.3528 253.786 18.8834C253.253 18.4141 252.506 17.9981 251.546 17.6354L250.394 17.1874C249.285 16.7608 248.442 16.2274 247.866 15.5874C247.311 14.9474 247.034 14.1261 247.034 13.1234C247.034 12.2701 247.226 11.5448 247.61 10.9474C248.015 10.3288 248.538 9.84877 249.178 9.50744C249.839 9.1661 250.543 8.99544 251.29 8.99544C251.823 8.99544 252.271 9.05944 252.634 9.18744C253.018 9.31544 253.338 9.44344 253.594 9.57144C253.807 9.6781 253.989 9.73144 254.138 9.73144C254.351 9.73144 254.522 9.50744 254.65 9.05944L255.354 9.09144L255.226 11.1714V13.4114H254.49C254.341 12.4088 253.999 11.5448 253.466 10.8194C252.933 10.0728 252.165 9.69944 251.162 9.69944C250.458 9.69944 249.861 9.92344 249.37 10.3714C248.901 10.8194 248.666 11.3848 248.666 12.0674C248.666 12.7288 248.911 13.2834 249.402 13.7314C249.914 14.1581 250.607 14.5421 251.482 14.8834L252.73 15.3634C254.031 15.8541 254.927 16.4514 255.418 17.1554C255.93 17.8381 256.186 18.6594 256.186 19.6194C256.186 20.7501 255.802 21.7421 255.034 22.5954C254.266 23.4488 253.157 23.8754 251.706 23.8754ZM263.3 23.8754C262.489 23.8754 261.796 23.7794 261.22 23.5874C260.665 23.4168 260.228 23.2568 259.908 23.1074C259.566 22.9368 259.353 22.8514 259.268 22.8514C259.182 22.8514 259.108 22.8941 259.044 22.9794C259.001 23.0434 258.948 23.2248 258.884 23.5234H258.148L258.276 21.4114L258.372 18.6914H259.076L259.108 19.2354C259.15 19.8328 259.342 20.4301 259.684 21.0274C260.046 21.6248 260.537 22.1261 261.156 22.5314C261.774 22.9368 262.489 23.1394 263.3 23.1394C264.174 23.1394 264.878 22.9154 265.412 22.4674C265.945 22.0194 266.212 21.4008 266.212 20.6114C266.212 19.9288 265.934 19.3528 265.38 18.8834C264.846 18.4141 264.1 17.9981 263.14 17.6354L261.988 17.1874C260.878 16.7608 260.036 16.2274 259.46 15.5874C258.905 14.9474 258.628 14.1261 258.628 13.1234C258.628 12.2701 258.82 11.5448 259.204 10.9474C259.609 10.3288 260.132 9.84877 260.772 9.50744C261.433 9.1661 262.137 8.99544 262.884 8.99544C263.417 8.99544 263.865 9.05944 264.228 9.18744C264.612 9.31544 264.932 9.44344 265.188 9.57144C265.401 9.6781 265.582 9.73144 265.732 9.73144C265.945 9.73144 266.116 9.50744 266.244 9.05944L266.948 9.09144L266.82 11.1714V13.4114H266.084C265.934 12.4088 265.593 11.5448 265.06 10.8194C264.526 10.0728 263.758 9.69944 262.756 9.69944C262.052 9.69944 261.454 9.92344 260.964 10.3714C260.494 10.8194 260.26 11.3848 260.26 12.0674C260.26 12.7288 260.505 13.2834 260.996 13.7314C261.508 14.1581 262.201 14.5421 263.076 14.8834L264.324 15.3634C265.625 15.8541 266.521 16.4514 267.012 17.1554C267.524 17.8381 267.78 18.6594 267.78 19.6194C267.78 20.7501 267.396 21.7421 266.628 22.5954C265.86 23.4488 264.75 23.8754 263.3 23.8754Z" fill="#725A58"/>
</svg>
