<svg width="128" height="132" viewBox="0 0 128 132" fill="none" xmlns="http://www.w3.org/2000/svg">
<path d="M48.2635 53.7542C46.2095 53.7542 44.1738 53.6136 42.2703 53.053C35.4146 51.0275 30.4333 44.9649 28.8663 38.112C27.2992 31.228 29.0927 23.6899 33.9171 18.4758C38.3802 13.6545 43.6682 12.6554 49.8818 12.6554C49.9458 12.6554 50.0554 12.6599 50.1961 12.6657C50.2715 12.6688 50.3557 12.6723 50.4467 12.6757C50.7062 12.6852 51.0176 12.6935 51.3231 12.6886C51.6282 12.6837 51.9296 12.6656 52.1685 12.6216C52.2878 12.5997 52.3938 12.5709 52.4776 12.5328C52.5602 12.4952 52.6285 12.4454 52.6614 12.3771L52.6617 12.3765C52.6673 12.3645 52.6689 12.3505 52.6651 12.3367C52.6617 12.3241 52.6547 12.315 52.649 12.3093C52.6384 12.2985 52.6249 12.2918 52.6146 12.2873C52.5926 12.2779 52.5617 12.2696 52.5258 12.2621C52.453 12.2467 52.3474 12.2317 52.2211 12.2172C51.968 12.1882 51.6258 12.1605 51.2818 12.1366C50.5948 12.0887 49.8956 12.0554 49.8818 12.0554C49.3684 12.0554 48.8544 12.0529 48.3403 12.0504C42.8109 12.0235 37.2654 11.9965 32.3693 15.0789L32.3693 15.079C24.7395 19.8887 21.3264 29.4666 23.3074 38.1265C25.1398 46.1687 31.5147 52.6314 39.7563 53.877C43.2753 54.4086 46.9496 54.3299 50.5612 54.2525C51.8381 54.2251 53.1071 54.1979 54.3587 54.1979C54.4228 54.1979 54.5324 54.2024 54.6731 54.2082C54.7485 54.2113 54.8327 54.2148 54.9237 54.2182C55.1832 54.2277 55.4945 54.236 55.8 54.2311C56.1051 54.2262 56.4065 54.2081 56.6454 54.1641C56.7647 54.1422 56.8707 54.1134 56.9545 54.0753C57.0316 54.0403 57.0962 53.9945 57.1313 53.9331L57.1386 53.9347C57.1435 53.9243 57.1453 53.9124 57.1433 53.9005V53.8979L57.1428 53.8978C57.1426 53.8968 57.1423 53.8958 57.142 53.8949C57.1386 53.8822 57.1316 53.8732 57.126 53.8674C57.1154 53.8567 57.1019 53.8499 57.0916 53.8455C57.0695 53.836 57.0386 53.8278 57.0028 53.8202C56.9299 53.8049 56.8244 53.7899 56.6981 53.7754C56.445 53.7463 56.1027 53.7186 55.7588 53.6947C55.0717 53.6469 54.3725 53.6135 54.3587 53.6135C53.384 53.6135 52.3846 53.6479 51.3754 53.6827L51.3419 53.6839C50.3211 53.719 49.2904 53.7542 48.2635 53.7542Z" fill="#191919" stroke="#191919" stroke-width="0.1"/>
<path d="M67.0189 95.7265V12.3164C67.0189 12.2892 67.0065 12.2668 66.9911 12.25C66.9761 12.2335 66.9562 12.2201 66.9347 12.2088C66.8917 12.1861 66.8317 12.1663 66.7597 12.1486C66.6148 12.1129 66.4087 12.0826 66.1611 12.0565C65.6651 12.0043 64.9942 11.9686 64.2927 11.9442C62.8893 11.8953 61.3592 11.8914 60.8512 11.8914C60.5291 11.8914 59.8438 11.9208 59.2389 11.9786C58.9366 12.0074 58.6527 12.0435 58.4436 12.0869C58.3395 12.1085 58.2514 12.1325 58.1883 12.1593C58.1569 12.1727 58.1288 12.1879 58.1077 12.2061C58.087 12.2239 58.0666 12.2502 58.0666 12.2852C58.0666 12.3086 58.0788 12.3258 58.0897 12.3362C58.1004 12.3465 58.1135 12.3538 58.1257 12.3594C58.1504 12.3706 58.1835 12.3798 58.2214 12.3876C58.2981 12.4035 58.4066 12.4166 58.5367 12.4274C58.7975 12.4492 59.152 12.4626 59.5287 12.4709C60.1771 12.4852 60.8942 12.4843 61.318 12.4838C61.3658 12.4837 61.4099 12.4837 61.4497 12.4837V95.7265H59.6792C59.6152 95.7265 59.5055 95.722 59.3648 95.7162C59.2895 95.7131 59.2052 95.7096 59.1143 95.7063C58.8548 95.6967 58.5434 95.6884 58.2379 95.6933C57.9328 95.6982 57.6314 95.7163 57.3925 95.7603C57.2732 95.7822 57.1672 95.8111 57.0835 95.8491C57.0008 95.8867 56.9325 95.9365 56.8996 96.0048H56.8996L56.8993 96.0054C56.8937 96.0174 56.8921 96.0314 56.8959 96.0452C56.8993 96.0578 56.9063 96.0669 56.912 96.0726C56.9226 96.0834 56.9361 96.0902 56.9464 96.0946C56.9684 96.104 56.9994 96.1123 57.0352 96.1198C57.108 96.1352 57.2136 96.1502 57.3399 96.1647C57.593 96.1938 57.9352 96.2214 58.2792 96.2454C58.9662 96.2932 59.6654 96.3265 59.6792 96.3265H73.8601C74.8645 96.3265 75.8875 96.347 76.9201 96.3676C80.5801 96.4408 84.3612 96.5164 87.8649 95.6923L87.8535 95.6437L87.865 95.6923C96.934 93.5494 102.041 85.7949 102.902 77.4989C103.764 69.2035 100.38 60.3547 92.456 56.0184L92.4543 56.0175L92.4403 56.0106C92.4401 56.0104 92.4398 56.0103 92.4395 56.0101C89.6182 54.4664 86.5282 53.8679 83.3721 53.6548C81.1843 53.507 78.9613 53.5444 76.7735 53.5812C75.8065 53.5975 74.8464 53.6136 73.8992 53.6136C73.8351 53.6136 73.7255 53.6091 73.5847 53.6033C73.5094 53.6002 73.4251 53.5967 73.3342 53.5934C73.0747 53.5839 72.7634 53.5755 72.4578 53.5804C72.1528 53.5853 71.8513 53.6034 71.6125 53.6474C71.4931 53.6694 71.3872 53.6982 71.3034 53.7362C71.2207 53.7738 71.1524 53.8236 71.1195 53.8919L71.1193 53.8925C71.1136 53.9045 71.1121 53.9185 71.1158 53.9323C71.1193 53.945 71.1263 53.954 71.1319 53.9597C71.1425 53.9705 71.156 53.9773 71.1663 53.9817C71.1883 53.9912 71.2193 53.9994 71.2551 54.007C71.3279 54.0223 71.4335 54.0373 71.5598 54.0518C71.8129 54.0809 72.1552 54.1085 72.4991 54.1325C73.1861 54.1803 73.8854 54.2137 73.8992 54.2137C74.6848 54.2137 75.4849 54.1861 76.2884 54.1585C76.6963 54.1445 77.105 54.1304 77.5131 54.1199C78.7264 54.0886 79.9368 54.0887 81.1133 54.2134C85.7768 54.7117 90.133 57.6402 92.9865 61.2577C99.0432 68.9514 99.1525 80.443 93.2904 88.2772C90.4601 92.0587 85.9869 95.2285 81.1759 95.7268C79.8939 95.857 78.5587 95.8131 77.2361 95.7696C76.579 95.748 75.925 95.7265 75.2821 95.7265H67.0189Z" fill="#191919" stroke="#191919" stroke-width="0.1"/>
<path d="M120.913 122.727L123.14 117.395C123.46 116.614 123.62 116.18 123.62 116.094C123.62 115.704 123.187 115.5 122.319 115.485V114.946H125.694V115.485C125.171 115.508 124.788 115.649 124.546 115.907C124.304 116.157 124.003 116.715 123.644 117.583L119.366 127.907C118.96 128.891 118.601 129.559 118.288 129.911C117.976 130.27 117.632 130.45 117.257 130.45C116.749 130.45 116.495 130.219 116.495 129.758C116.495 129.227 116.901 128.778 117.714 128.411C118.19 128.2 118.507 128.02 118.663 127.872C118.827 127.723 118.987 127.454 119.144 127.063L120.058 124.778L116.448 117.043C116.128 116.364 115.862 115.934 115.651 115.754C115.44 115.575 115.081 115.485 114.573 115.485V114.946H118.979V115.485C118.206 115.508 117.819 115.668 117.819 115.965C117.819 116.083 117.972 116.465 118.276 117.114L120.913 122.727Z" fill="#191919"/>
<path d="M114.269 115.485H111.374V121.286C111.374 122.176 111.413 122.778 111.491 123.09C111.569 123.395 111.733 123.641 111.983 123.829C112.241 124.016 112.515 124.11 112.804 124.11C113.366 124.11 113.854 123.79 114.269 123.149L114.644 123.372C114.401 123.887 114.042 124.278 113.565 124.543C113.097 124.801 112.62 124.93 112.136 124.93C111.573 124.93 111.077 124.766 110.647 124.438C110.226 124.102 109.96 123.711 109.851 123.266C109.749 122.821 109.698 122.04 109.698 120.922V115.485H108.304V114.946C108.944 114.93 109.519 114.661 110.026 114.137C110.534 113.614 110.858 112.879 110.999 111.934H111.374V114.946H114.269V115.485Z" fill="#191919"/>
<path d="M105.597 114.946V121.239C105.597 122.286 105.612 122.942 105.644 123.208C105.675 123.473 105.788 123.672 105.983 123.805C106.187 123.938 106.546 124.004 107.062 124.004V124.543C105.874 124.559 105.007 124.684 104.46 124.918H104.319C104.069 124.489 103.937 123.747 103.921 122.692C103.444 123.434 102.897 123.993 102.28 124.368C101.671 124.743 100.995 124.93 100.253 124.93C99.6123 124.93 99.0459 124.786 98.5537 124.497C98.0615 124.2 97.7217 123.84 97.5342 123.418C97.3545 122.997 97.2646 122.36 97.2646 121.508V118.239C97.2646 117.129 97.2451 116.454 97.2061 116.211C97.167 115.961 97.042 115.778 96.8311 115.661C96.6279 115.543 96.249 115.485 95.6943 115.485V114.946H98.9521V121.602C98.9521 122.258 98.9912 122.735 99.0693 123.032C99.1475 123.329 99.3467 123.59 99.667 123.817C99.9873 124.036 100.358 124.145 100.78 124.145C101.382 124.145 101.956 123.95 102.503 123.559C103.05 123.161 103.421 122.743 103.616 122.305C103.819 121.86 103.921 121.227 103.921 120.407V118.239C103.921 117.192 103.909 116.555 103.886 116.329C103.862 116.102 103.761 115.907 103.581 115.743C103.409 115.571 103.046 115.485 102.491 115.485H102.245V114.946H105.597Z" fill="#191919"/>
<path d="M94.4873 122.786H94.9209C94.8506 124.122 94.1943 124.79 92.9521 124.79C92.4209 124.79 91.999 124.649 91.6865 124.368C91.3818 124.086 91.1826 123.668 91.0889 123.114C90.3076 123.668 89.5928 124.086 88.9443 124.368C88.3037 124.649 87.7295 124.79 87.2217 124.79C86.5732 124.79 86.0146 124.602 85.5459 124.227C85.0771 123.852 84.8428 123.356 84.8428 122.739C84.8428 121.934 85.2334 121.231 86.0146 120.629C86.8037 120.028 87.8896 119.442 89.2725 118.872L91.0889 118.133V117.665C91.0889 117 91.0459 116.52 90.96 116.223C90.874 115.926 90.6514 115.661 90.292 115.426C89.9326 115.192 89.46 115.075 88.874 115.075C87.7021 115.075 87.0498 115.465 86.917 116.247C86.792 117.043 86.4639 117.442 85.9326 117.442C85.4561 117.442 85.2178 117.215 85.2178 116.762C85.2178 116.317 85.5342 115.84 86.167 115.333C86.7998 114.817 87.7842 114.559 89.1201 114.559C90.1123 114.559 90.8818 114.715 91.4287 115.028C91.9756 115.34 92.335 115.696 92.5068 116.094C92.6865 116.493 92.7764 117.102 92.7764 117.922V121.801C92.7764 122.708 92.8232 123.29 92.917 123.547C93.0107 123.805 93.2139 123.934 93.5264 123.934C94.042 123.934 94.3623 123.551 94.4873 122.786ZM91.0889 118.684L89.8115 119.2C87.7959 120.02 86.7881 121.051 86.7881 122.293C86.7881 122.786 86.917 123.184 87.1748 123.489C87.4326 123.786 87.7686 123.934 88.1826 123.934C88.5498 123.934 88.9756 123.813 89.46 123.571C89.9443 123.329 90.4873 122.965 91.0889 122.481V118.684Z" fill="#191919"/>
<path d="M83.0029 118.192H76.3115C76.2803 118.653 76.2646 118.997 76.2646 119.223C76.2646 120.911 76.5264 122.18 77.0498 123.032C77.5811 123.875 78.3701 124.297 79.417 124.297C80.8389 124.297 81.8467 123.661 82.4404 122.387H83.0029C82.7529 123.184 82.2568 123.809 81.5146 124.262C80.7725 124.708 79.9639 124.93 79.0889 124.93C78.2764 124.93 77.5068 124.727 76.7803 124.321C76.0615 123.907 75.4717 123.325 75.0107 122.575C74.5498 121.825 74.3193 120.915 74.3193 119.844C74.3193 118.329 74.7646 117.071 75.6553 116.071C76.5459 115.063 77.6592 114.559 78.9951 114.559C80.2529 114.559 81.2256 114.942 81.9131 115.708C82.6006 116.473 82.9639 117.301 83.0029 118.192ZM80.9521 117.723C80.9756 117.543 80.9873 117.383 80.9873 117.243C80.9873 116.555 80.7842 116.024 80.3779 115.649C79.9795 115.266 79.4873 115.075 78.9014 115.075C77.4795 115.075 76.6318 115.958 76.3584 117.723H80.9521Z" fill="#191919"/>
<path d="M67.0068 115.989C68.8115 116.122 70.1514 116.571 71.0264 117.336C71.9014 118.102 72.3389 119.059 72.3389 120.208C72.3389 121.208 72.042 122.071 71.4482 122.797C70.8545 123.516 70.0928 123.989 69.1631 124.215C68.2412 124.434 67.0029 124.543 65.4482 124.543H59.2139V124.004H59.8232C60.5029 124.004 60.9717 123.918 61.2295 123.747C61.4951 123.575 61.6631 123.309 61.7334 122.95C61.8037 122.583 61.8389 121.735 61.8389 120.407V112.672C61.8389 111.383 61.7998 110.551 61.7217 110.176C61.6514 109.801 61.4951 109.543 61.2529 109.403C61.0186 109.262 60.499 109.192 59.6943 109.192H59.3896V108.653L62.0029 108.583L64.9795 108.489C69.3232 108.489 71.4951 109.739 71.4951 112.239C71.4951 113.27 71.1201 114.098 70.3701 114.723C69.6279 115.348 68.5068 115.77 67.0068 115.989ZM64.1357 115.766C64.3311 115.774 64.4951 115.778 64.6279 115.778C66.3154 115.778 67.4678 115.512 68.085 114.981C68.7021 114.45 69.0107 113.59 69.0107 112.403C69.0107 111.575 68.8896 110.934 68.6475 110.481C68.4053 110.028 68.042 109.68 67.5576 109.438C67.0732 109.188 66.2451 109.063 65.0732 109.063C64.7686 109.063 64.4561 109.075 64.1357 109.098V115.766ZM64.1357 116.34V119.879C64.1357 121.387 64.1631 122.344 64.2178 122.75C64.2725 123.157 64.417 123.465 64.6514 123.676C64.8936 123.887 65.3662 123.993 66.0693 123.993C67.3193 123.993 68.2568 123.672 68.8818 123.032C69.5068 122.391 69.8193 121.43 69.8193 120.149C69.8193 118.836 69.4639 117.872 68.7529 117.254C68.0498 116.629 66.8076 116.317 65.0264 116.317C64.7451 116.317 64.4482 116.325 64.1357 116.34Z" fill="#191919"/>
<path d="M51.9717 122.786H52.4053C52.335 124.122 51.6787 124.79 50.4365 124.79C49.9053 124.79 49.4834 124.649 49.1709 124.368C48.8662 124.086 48.667 123.668 48.5732 123.114C47.792 123.668 47.0771 124.086 46.4287 124.368C45.7881 124.649 45.2139 124.79 44.7061 124.79C44.0576 124.79 43.499 124.602 43.0303 124.227C42.5615 123.852 42.3271 123.356 42.3271 122.739C42.3271 121.934 42.7178 121.231 43.499 120.629C44.2881 120.028 45.374 119.442 46.7568 118.872L48.5732 118.133V117.665C48.5732 117 48.5303 116.52 48.4443 116.223C48.3584 115.926 48.1357 115.661 47.7764 115.426C47.417 115.192 46.9443 115.075 46.3584 115.075C45.1865 115.075 44.5342 115.465 44.4014 116.247C44.2764 117.043 43.9482 117.442 43.417 117.442C42.9404 117.442 42.7021 117.215 42.7021 116.762C42.7021 116.317 43.0186 115.84 43.6514 115.333C44.2842 114.817 45.2686 114.559 46.6045 114.559C47.5967 114.559 48.3662 114.715 48.9131 115.028C49.46 115.34 49.8193 115.696 49.9912 116.094C50.1709 116.493 50.2607 117.102 50.2607 117.922V121.801C50.2607 122.708 50.3076 123.29 50.4014 123.547C50.4951 123.805 50.6982 123.934 51.0107 123.934C51.5264 123.934 51.8467 123.551 51.9717 122.786ZM48.5732 118.684L47.2959 119.2C45.2803 120.02 44.2725 121.051 44.2725 122.293C44.2725 122.786 44.4014 123.184 44.6592 123.489C44.917 123.786 45.2529 123.934 45.667 123.934C46.0342 123.934 46.46 123.813 46.9443 123.571C47.4287 123.329 47.9717 122.965 48.5732 122.481V118.684Z" fill="#191919"/>
<path d="M39.3154 108.43V121.25C39.3154 122.274 39.3271 122.918 39.3506 123.184C39.3818 123.45 39.4951 123.653 39.6904 123.793C39.8857 123.934 40.2334 124.004 40.7334 124.004H41.0146V124.543H35.8818V124.004H36.21C36.6787 124.004 37.0107 123.942 37.2061 123.817C37.4092 123.684 37.5303 123.5 37.5693 123.266C37.6084 123.032 37.6279 122.36 37.6279 121.25V111.758C37.6279 110.75 37.5381 110.118 37.3584 109.86C37.1787 109.594 36.7412 109.461 36.0459 109.461V108.922C36.5225 108.922 37.0811 108.868 37.7217 108.758C38.3701 108.649 38.8154 108.54 39.0576 108.43H39.3154Z" fill="#191919"/>
<path d="M31.3584 117.008C31.624 116.313 32.0537 115.731 32.6475 115.262C33.249 114.793 33.835 114.559 34.4053 114.559C34.9209 114.559 35.3271 114.719 35.624 115.04C35.9209 115.36 36.0693 115.688 36.0693 116.024C36.0693 116.25 35.9912 116.446 35.835 116.61C35.6865 116.774 35.5029 116.856 35.2842 116.856C34.8936 116.856 34.5967 116.567 34.3936 115.989C34.2529 115.598 34.042 115.403 33.7607 115.403C33.4248 115.403 33.0225 115.633 32.5537 116.094C32.085 116.547 31.7842 117.02 31.6514 117.512C31.5186 118.004 31.4521 118.68 31.4521 119.54V121.25C31.4521 122.274 31.4639 122.918 31.4873 123.184C31.5186 123.45 31.6318 123.653 31.8271 123.793C32.0225 123.934 32.3701 124.004 32.8701 124.004H33.1982V124.543H28.1006V124.004H28.3467C28.8154 124.004 29.1475 123.942 29.3428 123.817C29.5459 123.684 29.667 123.5 29.7061 123.266C29.7451 123.032 29.7646 122.36 29.7646 121.25V118.543C29.7646 117.512 29.749 116.868 29.7178 116.61C29.6943 116.344 29.585 116.141 29.3896 116C29.1943 115.852 28.8467 115.778 28.3467 115.778H28.1006V115.25C28.835 115.165 29.7959 114.934 30.9834 114.559C31.21 115.176 31.335 115.993 31.3584 117.008Z" fill="#191919"/>
<path d="M26.6826 122.786H27.1162C27.0459 124.122 26.3896 124.79 25.1475 124.79C24.6162 124.79 24.1943 124.649 23.8818 124.368C23.5771 124.086 23.3779 123.668 23.2842 123.114C22.5029 123.668 21.7881 124.086 21.1396 124.368C20.499 124.649 19.9248 124.79 19.417 124.79C18.7686 124.79 18.21 124.602 17.7412 124.227C17.2725 123.852 17.0381 123.356 17.0381 122.739C17.0381 121.934 17.4287 121.231 18.21 120.629C18.999 120.028 20.085 119.442 21.4678 118.872L23.2842 118.133V117.665C23.2842 117 23.2412 116.52 23.1553 116.223C23.0693 115.926 22.8467 115.661 22.4873 115.426C22.1279 115.192 21.6553 115.075 21.0693 115.075C19.8975 115.075 19.2451 115.465 19.1123 116.247C18.9873 117.043 18.6592 117.442 18.1279 117.442C17.6514 117.442 17.4131 117.215 17.4131 116.762C17.4131 116.317 17.7295 115.84 18.3623 115.333C18.9951 114.817 19.9795 114.559 21.3154 114.559C22.3076 114.559 23.0771 114.715 23.624 115.028C24.1709 115.34 24.5303 115.696 24.7021 116.094C24.8818 116.493 24.9717 117.102 24.9717 117.922V121.801C24.9717 122.708 25.0186 123.29 25.1123 123.547C25.2061 123.805 25.4092 123.934 25.7217 123.934C26.2373 123.934 26.5576 123.551 26.6826 122.786ZM23.2842 118.684L22.0068 119.2C19.9912 120.02 18.9834 121.051 18.9834 122.293C18.9834 122.786 19.1123 123.184 19.3701 123.489C19.6279 123.786 19.9639 123.934 20.3779 123.934C20.7451 123.934 21.1709 123.813 21.6553 123.571C22.1396 123.329 22.6826 122.965 23.2842 122.481V118.684Z" fill="#191919"/>
<path d="M14.0264 118.579H14.5303V124.145H14.0264C13.8857 123.512 13.6318 122.954 13.2646 122.469C11.8662 124.047 10.0811 124.836 7.90918 124.836C5.6123 124.836 3.7334 124.11 2.27246 122.657C0.819336 121.204 0.0927734 119.282 0.0927734 116.891C0.0927734 115.321 0.428711 113.844 1.10059 112.461C1.77246 111.071 2.70996 110.04 3.91309 109.368C5.11621 108.696 6.43652 108.36 7.87402 108.36C9.06152 108.36 10.1357 108.606 11.0967 109.098C12.0654 109.583 12.7881 110.122 13.2646 110.715C13.6006 110.051 13.8037 109.364 13.874 108.653H14.3896L14.5303 114.676H14.0264C13.6748 112.536 12.9561 111.047 11.8701 110.211C10.792 109.375 9.57324 108.958 8.21387 108.958C6.5498 108.958 5.22559 109.633 4.24121 110.985C3.26465 112.336 2.77637 114.27 2.77637 116.786C2.77637 119.168 3.31152 120.997 4.38184 122.27C5.45215 123.536 6.78418 124.168 8.37793 124.168C9.22949 124.168 10.1006 123.961 10.9912 123.547C11.8818 123.133 12.585 122.434 13.1006 121.45C13.624 120.458 13.9326 119.5 14.0264 118.579Z" fill="#191919"/>
</svg>
